<svg version="1.0" xmlns="http://www.w3.org/2000/svg" width="78" height="78" viewBox="0 0 78 78" preserveAspectRatio="xMidYMid meet">
 <g fill="#000000">
  <path d="M32.7 76 c-25.9 -4.5 -39.1 -35.3 -24.5 -57.1 7.1 -10.6 18.8 -16.9 31.3 -16.9 27.4 0 45.6 29 33.6 53.5 -7.4 15 -23.8 23.3 -40.4 20.5z m-3.9 -7.6 c-7.2 -7.2 -11 -14.8 -11.6 -23.6 -0.6 -8.7 0.2 -12.6 3.9 -18.1 7.5 -11.3 24.5 -12.9 34.2 -3.2 3.2 3.3 3.4 2.8 0.7 -2.5 -2.7 -5.3 -7.4 -10.5 -12.7 -14.1 -4.1 -2.9 -4.6 -3 -9.8 -2 -27.7 5.1 -38.4 39.7 -18.3 59.2 5.4 5.3 10.5 7.9 18.7 9.8 0.3 0.1 -2 -2.4 -5.1 -5.5z m25.2 2.4 c7.2 -3.3 13.6 -9.6 16.8 -16.6 3.7 -7.9 4.2 -19.4 1.3 -27.2 -3.6 -9.7 -14 -19.2 -23.3 -21.4 -2.5 -0.6 -2.3 -0.2 2.1 4.2 6.8 6.8 10.2 14.6 10.9 24.7 0.5 9.5 -0.7 14.1 -5.1 19.1 -8.4 9.7 -23.1 10.6 -32.4 2.1 -1.3 -1.1 -2.3 -1.6 -2.3 -1 0 2.1 8.3 12.5 12.8 15.9 4.2 3.2 5.2 3.5 9.2 3.2 2.5 -0.3 7 -1.6 10 -3z m-3.8 -14.7 c5.8 -4 8.2 -8.5 8.6 -16 0.4 -6.1 0.2 -6.9 -3 -11.5 -4.2 -6.3 -9.4 -9.1 -17 -9.1 -4.7 0 -6.4 0.6 -10 3 -12.9 9 -11.4 28.7 2.7 35.2 4.6 2.1 14.5 1.2 18.7 -1.6z"/>
 </g>
</svg>